# ProBuilder 4.2.3
# https://unity3d.com/unity/features/worldbuilding/probuilder
# 2020/7/24 14:50:57

mtllib ./Cone.mtl
o Cone

g Cone
v 0 0 0
v 0.5 0 0.8660254
v 1 1.361375 0
v 1 0 0
v 1.5 0 0.8660254
v 2 0 -8.742278E-08
v 1.5 0 -0.8660254
v 0.5000001 0 -0.8660254

vt 0 1.759386E-08
vt 1 0
vt 0.5 2.17945
vt 0.5 0.8660254
vt 1.5 0.8660254
vt 2 -8.742278E-08
vt 1.5 -0.8660254
vt 0.5000001 -0.8660254

vn -0.7307062 0.5367414 0.4218734
vn 0 -1 0
vn 5.029123E-08 0.5367414 0.8437468
vn 0.7307062 0.5367414 0.4218734
vn 0.7307062 0.5367414 -0.4218735
vn 0 0.5367414 -0.8437468
vn -0.7307062 0.5367414 -0.4218735

usemtl ProBuilderDefault
f 1/1/1 2/2/1 3/3/1
f 4/2/2 2/4/2 1/1/2
f 2/1/3 5/2/3 3/3/3
f 4/2/2 5/5/2 2/4/2
f 5/1/4 6/2/4 3/3/4
f 4/2/2 6/6/2 5/5/2
f 6/1/5 7/2/5 3/3/5
f 4/2/2 7/7/2 6/6/2
f 7/1/6 8/2/6 3/3/6
f 4/2/2 8/8/2 7/7/2
f 8/1/7 1/2/7 3/3/7
f 4/2/2 1/1/2 8/8/2

