# ProBuilder 4.2.3
# https://unity3d.com/unity/features/worldbuilding/probuilder
# 2020/7/24 20:22:44

mtllib ./Pipe.mtl
o Pipe

g Pipe
v 1 0 1
v 0 0 0
v 1 0.3 1
v 0 0.3 0
v 0.6 0 0
v 1 0 0.4
v 0.6 0.3 0
v 1 0.3 0.4
v 2 0 -8.742278E-08
v 2 0.3 -8.742278E-08
v 1.4 0 -3.496911E-08
v 1.4 0.3 -3.496911E-08
v 1 0 -1
v 1 0.3 -1
v 1 0 -0.4
v 1 0.3 -0.4
v 1 0.6 1
v 0 0.6 0
v 0.6 0.6 0
v 1 0.6 0.4
v 2 0.6 -8.742278E-08
v 1.4 0.6 -3.496911E-08
v 1 0.6 -1
v 1 0.6 -0.4

vt 1.414214 0
vt 0 0
vt 1.414214 0.3
vt 0 0.3
vt -0.4242641 0
vt -0.9899495 0
vt -0.4242641 0.3
vt -0.9899495 0.3
vt -1.414214 0
vt -1.414214 0.3
vt 0.9899495 0
vt 0.4242641 0
vt 0.9899495 0.3
vt 0.4242641 0.3
vt 1.414214 0.6
vt 0 0.6
vt -0.4242641 0.6
vt -0.9899495 0.6
vt -1.414214 0.6
vt 0.9899495 0.6
vt 0.4242641 0.6
vt 1 1
vt 0.6 0
vt 1 0.4
vt -1 1
vt -1 0.4
vt -0.6 0
vt 2 -8.742278E-08
vt 1.4 -3.496911E-08
vt -2 -8.742278E-08
vt -1.4 -3.496911E-08
vt 1 -1
vt 1 -0.4
vt -1 -1
vt -1 -0.4

vn -0.7071068 0 0.7071068
vn 0.7071068 0 -0.7071068
vn 0.7071068 0 0.7071068
vn -0.7071068 0 -0.7071068
vn 0 -1 0
vn 0 1 0

usemtl ProBuilderDefault
f 3/3/1 4/4/1 2/2/1 1/1/1
f 7/7/2 8/8/2 6/6/2 5/5/2
f 10/3/3 3/4/3 1/2/3 9/1/3
f 8/7/4 12/8/4 11/6/4 6/5/4
f 14/4/2 10/10/2 9/9/2 13/2/2
f 12/13/1 16/14/1 15/12/1 11/11/1
f 4/4/4 14/10/4 13/9/4 2/2/4
f 16/13/3 7/14/3 5/12/3 15/11/3
f 17/15/1 18/16/1 4/4/1 3/3/1
f 19/17/2 20/18/2 8/8/2 7/7/2
f 21/15/3 17/16/3 3/4/3 10/3/3
f 20/17/4 22/18/4 12/8/4 8/7/4
f 23/16/2 21/19/2 10/10/2 14/4/2
f 22/20/1 24/21/1 16/14/1 12/13/1
f 18/16/4 23/19/4 14/10/4 4/4/4
f 24/20/3 19/21/3 7/14/3 16/13/3
f 5/23/5 6/24/5 1/22/5 2/2/5
f 20/26/6 19/27/6 18/2/6 17/25/6
f 6/24/5 11/29/5 9/28/5 1/22/5
f 22/31/6 20/26/6 17/25/6 21/30/6
f 11/29/5 15/33/5 13/32/5 9/28/5
f 24/35/6 22/31/6 21/30/6 23/34/6
f 15/33/5 5/23/5 2/2/5 13/32/5
f 19/27/6 24/35/6 23/34/6 18/2/6

