# ProBuilder 4.2.3
# https://unity3d.com/unity/features/worldbuilding/probuilder
# 2020/8/7 15:46:51

mtllib ./Triangle.mtl
o Triangle

g Cone
v 0 0 0
v -1 0 1
v -1 -1.2 0
v -1 0 0
v -2 0 -8.742278E-08
v -1 0 -1

vt 0 0
vt 1.414214 0
vt 0.7071068 1.392839
vt 1 1
vt 1 0
vt 2 -8.742278E-08
vt 1 -1

vn 0.6092077 -0.5076731 0.6092077
vn 0 1 0
vn -0.6092077 -0.507673 0.6092077
vn -0.6092077 -0.5076731 -0.6092077
vn 0.6092077 -0.5076731 -0.6092077

usemtl ProBuilderDefault
f 1/1/1 2/2/1 3/3/1
f 4/5/2 2/4/2 1/1/2
f 2/1/3 5/2/3 3/3/3
f 4/5/2 5/6/2 2/4/2
f 5/1/4 6/2/4 3/3/4
f 4/5/2 6/7/2 5/6/2
f 6/1/5 1/2/5 3/3/5
f 4/5/2 1/1/2 6/7/2

